<svg viewBox="0 0 32 32" xmlns="http://www.w3.org/2000/svg">
  <!-- Handle -->
  <rect x="13.5" y="21" width="5" height="9" rx="2.5" fill="#065f46"/>
  <!-- Cup/cresset -->
  <path d="M10 13 L22 13 L20 21 L12 21 Z" fill="#065f46"/>
  <!-- Outer flame -->
  <path d="M16 2 C13 5 11 7.5 12 10.5 C12.5 12 14 13 16 13 C18 13 19.5 12 20 10.5 C21 7.5 19 5 16 2 Z" fill="#16a34a"/>
  <!-- Inner flame glow -->
  <path d="M16 5.5 C14.5 7.5 14 9 15 11 C15.4 11.8 15.7 12.2 16 12.2 C16.3 12.2 16.6 11.8 17 11 C18 9 17.5 7.5 16 5.5 Z" fill="#4ade80"/>
</svg>
